<?xml version="1.0" encoding="UTF-8"?>
<svg version="1.1" xmlns="http://www.w3.org/2000/svg" width="194" height="259">
<path d="M0 0 C64.02 0 128.04 0 194 0 C194 85.47 194 170.94 194 259 C129.98 259 65.96 259 0 259 C0 173.53 0 88.06 0 0 Z " fill="#FDFDFD" transform="translate(0,0)"/>
<path d="M0 0 C1.65 0 3.3 0 5 0 C5 1.32 5 2.64 5 4 C18.2 4 31.4 4 45 4 C45 2.68 45 1.36 45 0 C46.32 0 47.64 0 49 0 C49 2.64 49 5.28 49 8 C47.68 8 46.36 8 45 8 C45 9.65 45 11.3 45 13 C43.68 13 42.36 13 41 13 C41 11.35 41 9.7 41 8 C39.35 8 37.7 8 36 8 C36 9.98 36 11.96 36 14 C37.65 14 39.3 14 41 14 C41 15.32 41 16.64 41 18 C43.97 18 46.94 18 50 18 C50 16.68 50 15.36 50 14 C52.97 14 55.94 14 59 14 C59 15.32 59 16.64 59 18 C60.65 18 62.3 18 64 18 C64 19.65 64 21.3 64 23 C65.32 23 66.64 23 68 23 C68 24.32 68 25.64 68 27 C69.32 27 70.64 27 72 27 C72 29.97 72 32.94 72 36 C73.65 36 75.3 36 77 36 C77 40.62 77 45.24 77 50 C75.35 50 73.7 50 72 50 C72 51.32 72 52.64 72 54 C70.68 54 69.36 54 68 54 C68 55.65 68 57.3 68 59 C66.68 59 65.36 59 64 59 C64 60.32 64 61.64 64 63 C60.7 63 57.4 63 54 63 C54 64.65 54 66.3 54 68 C55.65 68 57.3 68 59 68 C59 70.97 59 73.94 59 77 C57.35 77 55.7 77 54 77 C54 78.32 54 79.64 54 81 C48.06 81 42.12 81 36 81 C36 82.65 36 84.3 36 86 C37.65 86 39.3 86 41 86 C41 87.32 41 88.64 41 90 C48.59 90 56.18 90 64 90 C64 88.68 64 87.36 64 86 C61.03 86 58.06 86 55 86 C55 84.68 55 83.36 55 82 C59.29 82 63.58 82 68 82 C68 84.97 68 87.94 68 91 C66.68 91 65.36 91 64 91 C64 92.65 64 94.3 64 96 C56.41 96 48.82 96 41 96 C41 94.35 41 92.7 41 91 C37.7 91 34.4 91 31 91 C31 86.38 31 81.76 31 77 C29.68 77 28.36 77 27 77 C27 75.35 27 73.7 27 72 C25.35 72 23.7 72 22 72 C22 77.94 22 83.88 22 90 C19.36 90 16.72 90 14 90 C14 89.01 14 88.02 14 87 C15.32 87 16.64 87 18 87 C18 85.02 18 83.04 18 81 C12.06 81 6.12 81 0 81 C0 82.65 0 84.3 0 86 C-2.97 86 -5.94 86 -9 86 C-9 87.32 -9 88.64 -9 90 C-10.65 90 -12.3 90 -14 90 C-14 87.03 -14 84.06 -14 81 C-11.03 81 -8.06 81 -5 81 C-5 79.68 -5 78.36 -5 77 C-6.32 77 -7.64 77 -9 77 C-9 74.03 -9 71.06 -9 68 C-7.35 68 -5.7 68 -4 68 C-4 66.35 -4 64.7 -4 63 C-7.3 63 -10.6 63 -14 63 C-14 61.68 -14 60.36 -14 59 C-15.32 59 -16.64 59 -18 59 C-18 57.35 -18 55.7 -18 54 C-19.65 54 -21.3 54 -23 54 C-23 52.68 -23 51.36 -23 50 C-24.32 50 -25.64 50 -27 50 C-27 45.38 -27 40.76 -27 36 C-25.68 36 -24.36 36 -23 36 C-23 33.03 -23 30.06 -23 27 C-21.35 27 -19.7 27 -18 27 C-18 25.68 -18 24.36 -18 23 C-16.68 23 -15.36 23 -14 23 C-14 21.35 -14 19.7 -14 18 C-12.35 18 -10.7 18 -9 18 C-9 16.68 -9 15.36 -9 14 C-6.36 14 -3.72 14 -1 14 C-1 15.32 -1 16.64 -1 18 C2.3 18 5.6 18 9 18 C9 16.68 9 15.36 9 14 C10.32 14 11.64 14 13 14 C13 12.35 13 10.7 13 9 C11.68 9 10.36 9 9 9 C9 10.32 9 11.64 9 13 C7.68 13 6.36 13 5 13 C5 11.35 5 9.7 5 8 C3.35 8 1.7 8 0 8 C0 5.36 0 2.72 0 0 Z " fill="#000000" transform="translate(74,102)"/>
<path d="M0 0 C13.53 0 27.06 0 41 0 C41 1.32 41 2.64 41 4 C44.3 4 47.6 4 51 4 C51 5.65 51 7.3 51 9 C52.32 9 53.64 9 55 9 C55 11.97 55 14.94 55 18 C56.65 18 58.3 18 60 18 C60 23.94 60 29.88 60 36 C58.35 36 56.7 36 55 36 C55 37.65 55 39.3 55 41 C56.65 41 58.3 41 60 41 C60 45.29 60 49.58 60 54 C56.37810828 54.72437834 53.76234736 55.11585593 50.1875 55.0625 C49.00220703 55.04896484 49.00220703 55.04896484 47.79296875 55.03515625 C47.20128906 55.02355469 46.60960938 55.01195312 46 55 C46 56.32 46 57.64 46 59 C43.03 59 40.06 59 37 59 C37 57.68 37 56.36 37 55 C35.35 55 33.7 55 32 55 C32 53.02 32 51.04 32 49 C33.65 49 35.3 49 37 49 C37 50.65 37 52.3 37 54 C38.32 54 39.64 54 41 54 C41 52.35 41 50.7 41 49 C42.32 49 43.64 49 45 49 C45 46.36 45 43.72 45 41 C43.68 41 42.36 41 41 41 C41 42.32 41 43.64 41 45 C27.8 45 14.6 45 1 45 C1 43.68 1 42.36 1 41 C-0.65 41 -2.3 41 -4 41 C-4 43.64 -4 46.28 -4 49 C-2.35 49 -0.7 49 1 49 C1 50.65 1 52.3 1 54 C2.32 54 3.64 54 5 54 C5 52.68 5 51.36 5 50 C6.32 50 7.64 50 9 50 C9 51.65 9 53.3 9 55 C7.68 55 6.36 55 5 55 C5 56.32 5 57.64 5 59 C1.7 59 -1.6 59 -5 59 C-5 57.68 -5 56.36 -5 55 C-9.29 55 -13.58 55 -18 55 C-18 50.38 -18 45.76 -18 41 C-16.35 41 -14.7 41 -13 41 C-13 39.35 -13 37.7 -13 36 C-14.65 36 -16.3 36 -18 36 C-18 30.06 -18 24.12 -18 18 C-16.35 18 -14.7 18 -13 18 C-13 15.03 -13 12.06 -13 9 C-11.68 9 -10.36 9 -9 9 C-9 7.35 -9 5.7 -9 4 C-6.03 4 -3.06 4 0 4 C0 2.68 0 1.36 0 0 Z " fill="#F7F7F7" transform="translate(78,61)"/>
<path d="M0 0 C4.29 0 8.58 0 13 0 C13 1.32 13 2.64 13 4 C10.03 4 7.06 4 4 4 C4 6.97 4 9.94 4 13 C5.65 13 7.3 13 9 13 C9 14.65 9 16.3 9 18 C7.35 18 5.7 18 4 18 C4 19.32 4 20.64 4 22 C11.59 22 19.18 22 27 22 C27 20.68 27 19.36 27 18 C25.68 18 24.36 18 23 18 C23 16.35 23 14.7 23 13 C24.32 13 25.64 13 27 13 C27 10.03 27 7.06 27 4 C24.36 4 21.72 4 19 4 C19 2.68 19 1.36 19 0 C23.29 0 27.58 0 32 0 C32 1.32 32 2.64 32 4 C34.64 4 37.28 4 40 4 C40 5.32 40 6.64 40 8 C37.36 8 34.72 8 32 8 C32 15.92 32 23.84 32 32 C34.97 32 37.94 32 41 32 C41 27.38 41 22.76 41 18 C42.32 18 43.64 18 45 18 C45 20.97 45 23.94 45 27 C46.65 27 48.3 27 50 27 C50 25.35 50 23.7 50 22 C52.97 22 55.94 22 59 22 C59 23.65 59 25.3 59 27 C57.68 27 56.36 27 55 27 C55 28.32 55 29.64 55 31 C51.7 31 48.4 31 45 31 C45 32.65 45 34.3 45 36 C46.65 36 48.3 36 50 36 C50 38.97 50 41.94 50 45 C48.35 45 46.7 45 45 45 C45 46.32 45 47.64 45 49 C39.06 49 33.12 49 27 49 C27 50.65 27 52.3 27 54 C28.65 54 30.3 54 32 54 C32 55.32 32 56.64 32 58 C39.59 58 47.18 58 55 58 C55 56.68 55 55.36 55 54 C52.03 54 49.06 54 46 54 C46 52.68 46 51.36 46 50 C50.29 50 54.58 50 59 50 C59 52.97 59 55.94 59 59 C57.68 59 56.36 59 55 59 C55 60.65 55 62.3 55 64 C47.41 64 39.82 64 32 64 C32 62.35 32 60.7 32 59 C28.7 59 25.4 59 22 59 C22 54.38 22 49.76 22 45 C20.68 45 19.36 45 18 45 C18 43.35 18 41.7 18 40 C16.35 40 14.7 40 13 40 C13 45.94 13 51.88 13 58 C10.36 58 7.72 58 5 58 C5 57.01 5 56.02 5 55 C6.32 55 7.64 55 9 55 C9 53.02 9 51.04 9 49 C3.06 49 -2.88 49 -9 49 C-9 50.65 -9 52.3 -9 54 C-11.97 54 -14.94 54 -18 54 C-18 55.32 -18 56.64 -18 58 C-19.65 58 -21.3 58 -23 58 C-23 55.03 -23 52.06 -23 49 C-20.03 49 -17.06 49 -14 49 C-14 47.68 -14 46.36 -14 45 C-15.32 45 -16.64 45 -18 45 C-18 42.03 -18 39.06 -18 36 C-16.35 36 -14.7 36 -13 36 C-13 34.35 -13 32.7 -13 31 C-16.3 31 -19.6 31 -23 31 C-23 29.68 -23 28.36 -23 27 C-24.32 27 -25.64 27 -27 27 C-27 25.35 -27 23.7 -27 22 C-24.03 22 -21.06 22 -18 22 C-18 23.65 -18 25.3 -18 27 C-16.68 27 -15.36 27 -14 27 C-14 24.03 -14 21.06 -14 18 C-12.35 18 -10.7 18 -9 18 C-9 22.29 -9 26.58 -9 31 C-6.03 31 -3.06 31 0 31 C0 23.41 0 15.82 0 8 C-2.97 8 -5.94 8 -9 8 C-9 6.68 -9 5.36 -9 4 C-6.03 4 -3.06 4 0 4 C0 2.68 0 1.36 0 0 Z " fill="#030304" transform="translate(83,134)"/>
<path d="M0 0 C0 2.97 0 5.94 0 9 C1.32 9 2.64 9 4 9 C4 7.68 4 6.36 4 5 C7.3 5 10.6 5 14 5 C14 6.32 14 7.64 14 9 C15.32 9 16.64 9 18 9 C18 7.68 18 6.36 18 5 C22.62 5 27.24 5 32 5 C32 6.32 32 7.64 32 9 C33.32 9 34.64 9 36 9 C36 7.68 36 6.36 36 5 C40.62 5 45.24 5 50 5 C50 6.32 50 7.64 50 9 C51.32 9 52.64 9 54 9 C54 7.68 54 6.36 54 5 C56.97 5 59.94 5 63 5 C63 6.32 63 7.64 63 9 C61.35 9 59.7 9 58 9 C58 10.65 58 12.3 58 14 C55.36 14 52.72 14 50 14 C50 12.68 50 11.36 50 10 C45.71 10 41.42 10 37 10 C37 11.32 37 12.64 37 14 C39.64 14 42.28 14 45 14 C45 16.97 45 19.94 45 23 C43.68 23 42.36 23 41 23 C41 24.65 41 26.3 41 28 C42.32 28 43.64 28 45 28 C45 29.32 45 30.64 45 32 C37.41 32 29.82 32 22 32 C22 30.68 22 29.36 22 28 C23.65 28 25.3 28 27 28 C27 26.35 27 24.7 27 23 C25.35 23 23.7 23 22 23 C22 20.03 22 17.06 22 14 C24.97 14 27.94 14 31 14 C31 12.68 31 11.36 31 10 C26.71 10 22.42 10 18 10 C18 11.32 18 12.64 18 14 C15.03 14 12.06 14 9 14 C9 15.32 9 16.64 9 18 C11.97 18 14.94 18 18 18 C18 25.59 18 33.18 18 41 C15.03 41 12.06 41 9 41 C9 36.71 9 32.42 9 28 C7.35 28 5.7 28 4 28 C4 30.97 4 33.94 4 37 C2.68 37 1.36 37 0 37 C0 35.35 0 33.7 0 32 C-4.62 32 -9.24 32 -14 32 C-14 30.68 -14 29.36 -14 28 C-15.32 28 -16.64 28 -18 28 C-18 23.38 -18 18.76 -18 14 C-16.68 14 -15.36 14 -14 14 C-14 11.03 -14 8.06 -14 5 C-12.35 5 -10.7 5 -9 5 C-9 3.68 -9 2.36 -9 1 C-5.92677456 0.08941469 -3.19902639 -0.08886184 0 0 Z " fill="#336AC6" transform="translate(65,124)"/>
<path d="M0 0 C0.33 0 0.66 0 1 0 C1 1.65 1 3.3 1 5 C2.32 5 3.64 5 5 5 C5 6.32 5 7.64 5 9 C6.32 9 7.64 9 9 9 C9 11.97 9 14.94 9 18 C10.65 18 12.3 18 14 18 C14 22.62 14 27.24 14 32 C12.35 32 10.7 32 9 32 C9 33.32 9 34.64 9 36 C4.71 36 0.42 36 -4 36 C-4 37.65 -4 39.3 -4 41 C-5.65 41 -7.3 41 -9 41 C-9 38.03 -9 35.06 -9 32 C-10.32 32 -11.64 32 -13 32 C-13 36.62 -13 41.24 -13 46 C-15.97 46 -18.94 46 -22 46 C-22 38.08 -22 30.16 -22 22 C-19.36 22 -16.72 22 -14 22 C-14 20.68 -14 19.36 -14 18 C-12.35 18 -10.7 18 -9 18 C-9 19.32 -9 20.64 -9 22 C-5.7 22.33 -2.4 22.66 1 23 C1 21.35 1 19.7 1 18 C-1.97 18 -4.94 18 -8 18 C-8 16.68 -8 15.36 -8 14 C-6.68 14 -5.36 14 -4 14 C-4 10.7 -4 7.4 -4 4 C-2.68 4 -1.36 4 0 4 C0 2.68 0 1.36 0 0 Z " fill="#3062B3" transform="translate(137,120)"/>
<path d="M0 0 C1.65 0 3.3 0 5 0 C5 1.32 5 2.64 5 4 C18.2 4 31.4 4 45 4 C45 2.68 45 1.36 45 0 C46.32 0 47.64 0 49 0 C49 2.64 49 5.28 49 8 C47.68 8 46.36 8 45 8 C45 9.65 45 11.3 45 13 C43.68 13 42.36 13 41 13 C41 11.35 41 9.7 41 8 C39.35 8 37.7 8 36 8 C36 9.98 36 11.96 36 14 C37.65 14 39.3 14 41 14 C41 16.97 41 19.94 41 23 C30.44 23 19.88 23 9 23 C9 20.03 9 17.06 9 14 C10.32 14 11.64 14 13 14 C13 12.35 13 10.7 13 9 C11.68 9 10.36 9 9 9 C9 10.32 9 11.64 9 13 C7.68 13 6.36 13 5 13 C5 11.35 5 9.7 5 8 C3.35 8 1.7 8 0 8 C0 5.36 0 2.72 0 0 Z " fill="#0D0D0D" transform="translate(74,102)"/>
<path d="M0 0 C4.62 0 9.24 0 14 0 C14 1.32 14 2.64 14 4 C15.32 4 16.64 4 18 4 C18 2.68 18 1.36 18 0 C22.62 0 27.24 0 32 0 C32 1.32 32 2.64 32 4 C33.32 4 34.64 4 36 4 C36 2.68 36 1.36 36 0 C38.97 0 41.94 0 45 0 C45 1.32 45 2.64 45 4 C43.35 4 41.7 4 40 4 C40 5.65 40 7.3 40 9 C37.36 9 34.72 9 32 9 C32 7.68 32 6.36 32 5 C27.71 5 23.42 5 19 5 C19 6.32 19 7.64 19 9 C21.64 9 24.28 9 27 9 C27 11.97 27 14.94 27 18 C25.68 18 24.36 18 23 18 C23 19.65 23 21.3 23 23 C24.32 23 25.64 23 27 23 C27 24.32 27 25.64 27 27 C19.41 27 11.82 27 4 27 C4 25.68 4 24.36 4 23 C5.65 23 7.3 23 9 23 C9 21.35 9 19.7 9 18 C7.35 18 5.7 18 4 18 C4 15.03 4 12.06 4 9 C6.97 9 9.94 9 13 9 C13 7.35 13 5.7 13 4 C8.71 4 4.42 4 0 4 C0 2.68 0 1.36 0 0 Z " fill="#F8F8F8" transform="translate(83,129)"/>
<path d="M0 0 C13.53 0 27.06 0 41 0 C41 1.32 41 2.64 41 4 C44.3 4 47.6 4 51 4 C51 5.65 51 7.3 51 9 C52.32 9 53.64 9 55 9 C55 11.97 55 14.94 55 18 C53.35 18 51.7 18 50 18 C50 15.03 50 12.06 50 9 C47.03 9 44.06 9 41 9 C41 7.68 41 6.36 41 5 C27.8 5 14.6 5 1 5 C1 6.32 1 7.64 1 9 C-2.3 9 -5.6 9 -9 9 C-9 7.35 -9 5.7 -9 4 C-6.03 4 -3.06 4 0 4 C0 2.68 0 1.36 0 0 Z " fill="#767676" transform="translate(78,61)"/>
<path d="M0 0 C1.65 0 3.3 0 5 0 C3.68 0.33 2.36 0.66 1 1 C1 6.94 1 12.88 1 19 C-2.3 19 -5.6 19 -9 19 C-9 20.32 -9 21.64 -9 23 C-16.26 23 -23.52 23 -31 23 C-31 21.68 -31 20.36 -31 19 C-32.65 19 -34.3 19 -36 19 C-36 18.67 -36 18.34 -36 18 C-34.35 18 -32.7 18 -31 18 C-31 16.68 -31 15.36 -31 14 C-28.03 14 -25.06 14 -22 14 C-22 12.35 -22 10.7 -22 9 C-16.06 9 -10.12 9 -4 9 C-4 10.98 -4 12.96 -4 15 C-5.32 15 -6.64 15 -8 15 C-8 15.99 -8 16.98 -8 18 C-5.36 18 -2.72 18 0 18 C0 12.06 0 6.12 0 0 Z " fill="#D9D9D9" transform="translate(96,174)"/>
<path d="M0 0 C4.62 0 9.24 0 14 0 C14 1.32 14 2.64 14 4 C15.32 4 16.64 4 18 4 C18 2.68 18 1.36 18 0 C22.62 0 27.24 0 32 0 C32 1.32 32 2.64 32 4 C33.32 4 34.64 4 36 4 C36 2.68 36 1.36 36 0 C38.97 0 41.94 0 45 0 C45 1.32 45 2.64 45 4 C43.35 4 41.7 4 40 4 C40 5.65 40 7.3 40 9 C37.36 9 34.72 9 32 9 C32 7.68 32 6.36 32 5 C27.71 5 23.42 5 19 5 C18.67 7.97 18.34 10.94 18 14 C16.35 14 14.7 14 13 14 C13 10.7 13 7.4 13 4 C8.71 4 4.42 4 0 4 C0 2.68 0 1.36 0 0 Z " fill="#6A6A6A" transform="translate(83,129)"/>
<path d="M0 0 C0.33 0 0.66 0 1 0 C1 4.29 1 8.58 1 13 C11.56 13 22.12 13 33 13 C33 11.68 33 10.36 33 9 C30.03 9 27.06 9 24 9 C24 7.68 24 6.36 24 5 C28.29 5 32.58 5 37 5 C37 7.97 37 10.94 37 14 C35.68 14 34.36 14 33 14 C33 15.65 33 17.3 33 19 C25.41 19 17.82 19 10 19 C10 17.35 10 15.7 10 14 C6.7 14 3.4 14 0 14 C0 9.38 0 4.76 0 0 Z " fill="#A3A3A3" transform="translate(105,179)"/>
<path d="M0 0 C3.3 0 6.6 0 10 0 C10 1.32 10 2.64 10 4 C15.61 4 21.22 4 27 4 C27 4.33 27 4.66 27 5 C22.71 5 18.42 5 14 5 C14 6.32 14 7.64 14 9 C11.03 9 8.06 9 5 9 C5 10.32 5 11.64 5 13 C7.97 13 10.94 13 14 13 C14 13.33 14 13.66 14 14 C11.03 14 8.06 14 5 14 C5 15.32 5 16.64 5 18 C3.35 18 1.7 18 0 18 C0 16.68 0 15.36 0 14 C-2.97 14 -5.94 14 -9 14 C-9 12.35 -9 10.7 -9 9 C-6.03 9 -3.06 9 0 9 C0 6.03 0 3.06 0 0 Z " fill="#142647" transform="translate(69,129)"/>
<path d="M0 0 C0.33 1.32 0.66 2.64 1 4 C5.29 4 9.58 4 14 4 C14 4.33 14 4.66 14 5 C9.71 5 5.42 5 1 5 C1 6.32 1 7.64 1 9 C3.97 9 6.94 9 10 9 C10 10.32 10 11.64 10 13 C2.41 13 -5.18 13 -13 13 C-13 11.68 -13 10.36 -13 9 C-14.65 9 -16.3 9 -18 9 C-18 7.35 -18 5.7 -18 4 C-12.06 4 -6.12 4 0 4 C0 2.68 0 1.36 0 0 Z " fill="#FBFBFB" transform="translate(128,179)"/>
<path d="M0 0 C4.62 0 9.24 0 14 0 C14 4.62 14 9.24 14 14 C9.38 14 4.76 14 0 14 C0 9.38 0 4.76 0 0 Z " fill="#101010" transform="translate(110,83)"/>
<path d="M0 0 C2.97 0 5.94 0 9 0 C9 1.32 9 2.64 9 4 C7.35 4 5.7 4 4 4 C4 5.65 4 7.3 4 9 C5.65 9 7.3 9 9 9 C9 13.62 9 18.24 9 23 C6.03 23 3.06 23 0 23 C0 15.41 0 7.82 0 0 Z " fill="#3167BF" transform="translate(115,143)"/>
<path d="M0 0 C2.97 0 5.94 0 9 0 C9 7.26 9 14.52 9 22 C6.03 22 3.06 22 0 22 C0 17.71 0 13.42 0 9 C1.32 9 2.64 9 4 9 C4 7.35 4 5.7 4 4 C2.68 4 1.36 4 0 4 C0 2.68 0 1.36 0 0 Z " fill="#336BC6" transform="translate(74,143)"/>
<path d="M0 0 C4.29 0 8.58 0 13 0 C13 4.29 13 8.58 13 13 C8.71 13 4.42 13 0 13 C0 8.71 0 4.42 0 0 Z " fill="#010101" transform="translate(74,84)"/>
<path d="M0 0 C10.56 0 21.12 0 32 0 C32 1.65 32 3.3 32 5 C21.44 5 10.88 5 0 5 C0 3.35 0 1.7 0 0 Z " fill="#EFEFEF" transform="translate(83,120)"/>
<path d="M0 0 C13.2 0 26.4 0 40 0 C40 1.32 40 2.64 40 4 C26.8 4 13.6 4 0 4 C0 2.68 0 1.36 0 0 Z " fill="#000000" transform="translate(79,61)"/>
<path d="M0 0 C4.62 0 9.24 0 14 0 C14 1.32 14 2.64 14 4 C15.32 4 16.64 4 18 4 C18 7.3 18 10.6 18 14 C16.35 14 14.7 14 13 14 C13 10.7 13 7.4 13 4 C8.71 4 4.42 4 0 4 C0 2.68 0 1.36 0 0 Z " fill="#8E8E8E" transform="translate(83,129)"/>
<path d="M0 0 C1.32 0 2.64 0 4 0 C4 1.65 4 3.3 4 5 C5.65 5 7.3 5 9 5 C9 9.29 9 13.58 9 18 C7.35 18 5.7 18 4 18 C4 15.03 4 12.06 4 9 C2.68 9 1.36 9 0 9 C0 6.03 0 3.06 0 0 Z " fill="#0C0C0C" transform="translate(129,97)"/>
<path d="M0 0 C1.32 0 2.64 0 4 0 C4 2.97 4 5.94 4 9 C2.68 9 1.36 9 0 9 C0 11.97 0 14.94 0 18 C-1.65 18 -3.3 18 -5 18 C-5 13.71 -5 9.42 -5 5 C-3.35 5 -1.7 5 0 5 C0 3.35 0 1.7 0 0 Z " fill="#020202" transform="translate(65,97)"/>
<path d="M0 0 C3.3 0 6.6 0 10 0 C10 1.32 10 2.64 10 4 C15.61 4 21.22 4 27 4 C27 4.33 27 4.66 27 5 C22.71 5 18.42 5 14 5 C14 6.32 14 7.64 14 9 C11.03 9 8.06 9 5 9 C5 7.35 5 5.7 5 4 C3.35 4 1.7 4 0 4 C0 2.68 0 1.36 0 0 Z " fill="#686868" transform="translate(69,129)"/>
<path d="M0 0 C0.33 1.32 0.66 2.64 1 4 C14.2 4 27.4 4 41 4 C41 4.33 41 4.66 41 5 C27.8 5 14.6 5 1 5 C1 6.32 1 7.64 1 9 C-2.3 9 -5.6 9 -9 9 C-9 7.35 -9 5.7 -9 4 C-6.03 4 -3.06 4 0 4 C0 2.68 0 1.36 0 0 Z " fill="#9B9B9B" transform="translate(78,61)"/>
<path d="M0 0 C1.65 0 3.3 0 5 0 C5 5.94 5 11.88 5 18 C3.35 18 1.7 18 0 18 C0 12.06 0 6.12 0 0 Z " fill="#121212" transform="translate(133,79)"/>
<path d="M0 0 C1.65 0 3.3 0 5 0 C5 5.94 5 11.88 5 18 C3.35 18 1.7 18 0 18 C0 12.06 0 6.12 0 0 Z " fill="#050505" transform="translate(60,79)"/>
<path d="M0 0 C7.26 0 14.52 0 22 0 C22 1.32 22 2.64 22 4 C14.74 4 7.48 4 0 4 C0 2.68 0 1.36 0 0 Z " fill="#000000" transform="translate(115,193)"/>
<path d="M0 0 C7.26 0 14.52 0 22 0 C22 1.32 22 2.64 22 4 C14.74 4 7.48 4 0 4 C0 2.68 0 1.36 0 0 Z " fill="#000000" transform="translate(65,193)"/>
<path d="M0 0 C1.32 0 2.64 0 4 0 C4 1.32 4 2.64 4 4 C5.65 4 7.3 4 9 4 C9 5.65 9 7.3 9 9 C4.38 9 -0.24 9 -5 9 C-5 7.35 -5 5.7 -5 4 C-3.35 4 -1.7 4 0 4 C0 2.68 0 1.36 0 0 Z " fill="#111111" transform="translate(97,93)"/>
<path d="M0 0 C0.33 1.32 0.66 2.64 1 4 C2.32 4.33 3.64 4.66 5 5 C3.68 5 2.36 5 1 5 C1 6.32 1 7.64 1 9 C3.97 9 6.94 9 10 9 C10 10.65 10 12.3 10 14 C6.7 13.67 3.4 13.34 0 13 C0 11.68 0 10.36 0 9 C-1.65 9 -3.3 9 -5 9 C-5 7.35 -5 5.7 -5 4 C-3.35 4 -1.7 4 0 4 C0 2.68 0 1.36 0 0 Z " fill="#1C283E" transform="translate(128,129)"/>
<path d="M0 0 C1.32 0 2.64 0 4 0 C4 2.64 4 5.28 4 8 C2.68 8 1.36 8 0 8 C0 9.65 0 11.3 0 13 C-1.65 13 -3.3 13 -5 13 C-5 10.03 -5 7.06 -5 4 C-3.35 4 -1.7 4 0 4 C0 2.68 0 1.36 0 0 Z " fill="#010204" transform="translate(56,125)"/>
<path d="M0 0 C4.29 0 8.58 0 13 0 C13 2.64 13 5.28 13 8 C11.68 8 10.36 8 9 8 C9 6.68 9 5.36 9 4 C6.03 4 3.06 4 0 4 C0 2.68 0 1.36 0 0 Z " fill="#000000" transform="translate(129,184)"/>
<path d="M0 0 C1.32 0 2.64 0 4 0 C4 1.32 4 2.64 4 4 C5.32 4 6.64 4 8 4 C8 6.97 8 9.94 8 13 C6.68 13 5.36 13 4 13 C4 11.35 4 9.7 4 8 C2.68 8 1.36 8 0 8 C0 5.36 0 2.72 0 0 Z " fill="#000001" transform="translate(138,125)"/>
<path d="M0 0 C1.32 0 2.64 0 4 0 C4.08096803 1.45742463 4.13917774 2.91612807 4.1875 4.375 C4.22230469 5.18710938 4.25710937 5.99921875 4.29296875 6.8359375 C4.19628906 7.55007812 4.09960938 8.26421875 4 9 C3.01 9.66 2.02 10.32 1 11 C1.99 11.66 2.98 12.32 4 13 C1.36 13 -1.28 13 -4 13 C-4 11.68 -4 10.36 -4 9 C-2.68 9 -1.36 9 0 9 C0 6.03 0 3.06 0 0 Z " fill="#356ECC" transform="translate(133,125)"/>
<path d="M0 0 C1.65 0 3.3 0 5 0 C5 1.32 5 2.64 5 4 C6.32 4.33 7.64 4.66 9 5 C8.01 5 7.02 5 6 5 C6 6.32 6 7.64 6 9 C4.35 9 2.7 9 1 9 C1 7.68 1 6.36 1 5 C-1.97 5 -4.94 5 -8 5 C-8 4.67 -8 4.34 -8 4 C-5.36 4 -2.72 4 0 4 C0 2.68 0 1.36 0 0 Z " fill="#1C3767" transform="translate(123,138)"/>
<path d="M0 0 C1.32 0 2.64 0 4 0 C4 4.62 4 9.24 4 14 C2.68 14 1.36 14 0 14 C0 9.38 0 4.76 0 0 Z " fill="#080A0E" transform="translate(47,138)"/>
<path d="M0 0 C4.62 0 9.24 0 14 0 C14 1.32 14 2.64 14 4 C9.38 4 4.76 4 0 4 C0 2.68 0 1.36 0 0 Z " fill="#F9F9F9" transform="translate(101,129)"/>
<path d="M0 0 C4.29 0 8.58 0 13 0 C13 1.32 13 2.64 13 4 C8.71 4 4.42 4 0 4 C0 2.68 0 1.36 0 0 Z " fill="#FFFFFF" transform="translate(83,129)"/>
<path d="M0 0 C1.32 0 2.64 0 4 0 C4 3.96 4 7.92 4 12 C2.68 12 1.36 12 0 12 C0 8.04 0 4.08 0 0 Z " fill="#000000" transform="translate(147,139)"/>
<path d="M0 0 C0.33 1.32 0.66 2.64 1 4 C5.29 4 9.58 4 14 4 C14 4.33 14 4.66 14 5 C9.71 5 5.42 5 1 5 C0.67 6.32 0.34 7.64 0 9 C0 7.68 0 6.36 0 5 C-5.94 5 -11.88 5 -18 5 C-18 4.67 -18 4.34 -18 4 C-12.06 4 -6.12 4 0 4 C0 2.68 0 1.36 0 0 Z " fill="#979797" transform="translate(128,179)"/>
<path d="M0 0 C2.97 0 5.94 0 9 0 C9 1.32 9 2.64 9 4 C6.03 4 3.06 4 0 4 C0 2.68 0 1.36 0 0 Z " fill="#03070F" transform="translate(60,138)"/>
<path d="M0 0 C1.32 0 2.64 0 4 0 C4 2.97 4 5.94 4 9 C2.68 9 1.36 9 0 9 C0 6.03 0 3.06 0 0 Z " fill="#090909" transform="translate(129,70)"/>
<path d="M0 0 C1.32 0 2.64 0 4 0 C4 2.97 4 5.94 4 9 C2.68 9 1.36 9 0 9 C0 6.03 0 3.06 0 0 Z " fill="#000000" transform="translate(65,70)"/>
<path d="M0 0 C1.65 0 3.3 0 5 0 C5 1.65 5 3.3 5 5 C6.32 5.33 7.64 5.66 9 6 C6.03 6 3.06 6 0 6 C0 4.02 0 2.04 0 0 Z " fill="#CECECE" transform="translate(110,110)"/>
<path d="M0 0 C1.65 0 3.3 0 5 0 C5 1.98 5 3.96 5 6 C3.35 6 1.7 6 0 6 C0 4.02 0 2.04 0 0 Z " fill="#C2C2C2" transform="translate(92,110)"/>
<path d="M0 0 C1.65 0 3.3 0 5 0 C5 1.98 5 3.96 5 6 C3.35 6 1.7 6 0 6 C0 4.02 0 2.04 0 0 Z " fill="#C2C2C2" transform="translate(101,110)"/>
<path d="M0 0 C1.65 0 3.3 0 5 0 C5 1.65 5 3.3 5 5 C3.35 5 1.7 5 0 5 C0 3.35 0 1.7 0 0 Z " fill="#0A1326" transform="translate(119,147)"/>
<path d="M0 0 C1.65 0 3.3 0 5 0 C5 1.65 5 3.3 5 5 C3.35 5 1.7 5 0 5 C0 3.35 0 1.7 0 0 Z " fill="#13161D" transform="translate(69,133)"/>
<path d="M0 0 C2.64 0 5.28 0 8 0 C8 0.99 8 1.98 8 3 C5.36 3 2.72 3 0 3 C0 2.01 0 1.02 0 0 Z " fill="#000000" transform="translate(129,139)"/>
<path d="M0 0 C2.64 0 5.28 0 8 0 C8 0.99 8 1.98 8 3 C5.36 3 2.72 3 0 3 C0 2.01 0 1.02 0 0 Z " fill="#000000" transform="translate(120,66)"/>
<path d="M0 0 C2.64 0 5.28 0 8 0 C8 0.99 8 1.98 8 3 C5.36 3 2.72 3 0 3 C0 2.01 0 1.02 0 0 Z " fill="#000000" transform="translate(70,66)"/>
<path d="M0 0 C2.09749995 2.35968744 2.96905704 3.54616994 3.1875 6.75 C3.0946875 7.86375 3.0946875 7.86375 3 9 C2.01 9 1.02 9 0 9 C0 6.03 0 3.06 0 0 Z " fill="#376FCD" transform="translate(129,152)"/>
<path d="M0 0 C1.65 0 3.3 0 5 0 C5 1.32 5 2.64 5 4 C3.35 4 1.7 4 0 4 C0 2.68 0 1.36 0 0 Z " fill="#02060B" transform="translate(51,152)"/>
<path d="M0 0 C1.32 0 2.64 0 4 0 C4 1.65 4 3.3 4 5 C2.68 5 1.36 5 0 5 C0 3.35 0 1.7 0 0 Z " fill="#02040A" transform="translate(74,147)"/>
<path d="M0 0 C1.65 0 3.3 0 5 0 C5 1.32 5 2.64 5 4 C3.35 4 1.7 4 0 4 C0 2.68 0 1.36 0 0 Z " fill="#3161B3" transform="translate(69,138)"/>
</svg>
